<svg id="Layer_1" enable-background="new 0 0 512 512" height="512" viewBox="0 0 512 512" width="512" xmlns="http://www.w3.org/2000/svg"><g><g><g><g><path d="m441.74 511.995h-371.48c-13.08 0-23.34-11.2-22.18-24.22l4.56-50.91c2.83-31.6 25.74-57.77 56.71-64.78l63.3-14.33 36.58-8.28 95.3.43 36.28 8.21 49.54 11.2 12.28 2.77c30.98 7.01 53.9 33.18 56.73 64.8l4.56 50.89c1.16 13.02-9.1 24.22-22.18 24.22z" fill="#5cd9ff"/><path d="m463.92 487.777c1.16 13.016-9.1 24.223-22.18 24.223h-24c13.08 0 23.34-11.207 22.18-24.223l-4.56-50.896c-2.46-27.502-20.07-56.004-45.01-67.571l12.28 2.779c30.98 7.008 53.9 33.181 56.73 64.792z" fill="#5ab1ff"/><g fill="#d6dced"><path d="m132.84 432.452v79.548h-15v-79.548c0-4.139 3.35-7.498 7.5-7.498 4.14 0 7.5 3.36 7.5 7.498z"/><path d="m394.16 432.452v79.548h-15v-79.548c0-4.139 3.36-7.498 7.5-7.498s7.5 3.36 7.5 7.498z"/></g></g><path d="m337.2 357.266-9.88 8.48c-2.91 2.5-5.97 5.05-9.08 7.57-17.16 13.95-38.84 21.64-61.02 21.64-22.35 0-44.15-7.71-61.37-21.73-3.26-2.64-6.47-5.31-9.51-7.94l-9.79-8.43 32.68-7.4 95.3.43z" fill="#e6f3ff"/><g fill="#5ab1ff"><path d="m132.843 432.437v79.556h-15v-79.556c0-4.139 3.35-7.499 7.5-7.499 4.14.001 7.5 3.36 7.5 7.499z"/><path d="m394.163 432.437v79.556h-15v-79.556c0-4.139 3.36-7.499 7.5-7.499s7.5 3.36 7.5 7.499z"/></g><g><g fill="#df9380"><path d="m150.254 185.262c-5.379 5.443-8.29 12.654-8.195 20.304.189 15.465 12.932 28.047 28.406 28.047h3.5v-56.791h-3.5c-7.655 0-14.832 2.998-20.211 8.44z"/><path d="m363.512 185.262c-5.379-5.443-12.557-8.44-20.211-8.44h-3.5v56.791h3.5c15.473 0 28.216-12.582 28.406-28.047.094-7.65-2.816-14.861-8.195-20.304z"/></g><path d="m304.353 349.222.18.66c-2.74 2.349-5.59 4.718-8.54 7.117-10.98 8.916-24.7 13.774-38.86 13.744-14.16.03-27.9-4.838-38.89-13.774-3.13-2.529-6.13-5.038-9.01-7.517 2.04-7.706 3.22-15.603 3.52-23.539.06-1.419.09-2.829.09-4.248 0-5.358-.39-10.715-1.19-16.043l-2.42-16.203h95.3l-2.46 16.472c-1.01 6.727-1.38 13.514-1.12 20.281.3 7.767 1.44 15.494 3.4 23.05z" fill="#f9a58e"/><path d="m302.073 305.892c-1.01 6.727-1.38 13.514-1.12 20.281-2.23 1.909-4.54 3.828-6.94 5.767-10.39 8.436-23.49 13.094-36.9 13.094h-.23c-13.4 0-26.52-4.658-36.93-13.134-2.49-2.019-4.89-4.008-7.2-5.987.06-1.419.09-2.829.09-4.248 0-5.358-.39-10.715-1.19-16.043l-2.42-16.203h95.3z" fill="#df9380"/><path d="m346.554 163.565-90.783-40-88.783 40c2.137 20.814 2.679 47.408 1.253 61.938-.186 2.127-.28 4.397-.28 6.747 0 22.07 16.936 46.498 51.76 74.664 10.414 8.472 23.535 13.134 36.932 13.134h.23c13.408 0 26.513-4.652 36.901-13.097 34.854-28.193 51.796-52.628 51.796-74.699 0-2.335-.094-4.617-.288-6.875-1.416-14.44-.874-41.013 1.262-61.812z" fill="#f9a58e"/><g><path d="m276.188 256.724h-40.372c-4.142 0-7.5 3.356-7.5 7.497 0 4.14 3.358 7.497 7.5 7.497h40.372c4.143 0 7.5-3.356 7.5-7.497s-3.358-7.497-7.5-7.497z" fill="#df9380"/></g></g><path d="m390.522 121.688c0 29.275-23.82 53.091-53.11 53.091-10.97 0-21.38-3.4-30.04-9.348h-.01c-8.05-5.509-14.57-13.238-18.61-22.466-9.86 7.389-21.9 11.418-34.3 11.418-11.39 0-22.26-3.289-31.64-9.538-8.61 18.587-27.57 30.844-48.23 30.844-29.28 0-53.1-23.816-53.1-53.09 0-19.227 10.6-37.093 27.27-46.402-3.9-5.439-6.01-11.968-6.01-18.727 0-17.727 14.42-32.154 32.16-32.154 3.4 0 6.73.53 9.92 1.56 5.61-15.958 20.82-26.876 37.971-26.876 12.24 0 23.62 5.479 31.23 14.857 5.849-9.148 16.069-14.857 27.109-14.857 11.11 0 21.26 5.629 27.14 14.887.01.01.01.02.01.02 6.25-3.769 13.36-5.749 20.74-5.749 22.19 0 40.24 18.047 40.24 40.233 0 8.989-2.96 17.607-8.42 24.636 18.15 8.888 29.68 27.215 29.68 47.661z" fill="#49525e"/><path d="m390.522 121.688c0 29.275-23.82 53.091-53.11 53.091-10.97 0-21.38-3.4-30.04-9.348 48.383 1.406 63.15-25.495 63.15-43.742 0-12.738-7.08-24.126-18.48-29.715-5.4-2.649-9.32-7.579-10.68-13.438s-.01-12.018 3.68-16.767c2.76-3.559 4.22-7.839 4.22-12.378 0-11.158-7.8-34.134-40.98-34.484 6.25-3.769 13.36-5.749 20.74-5.749 22.19 0 40.24 18.047 40.24 40.233 0 8.989-2.96 17.607-8.42 24.636 18.15 8.888 29.68 27.215 29.68 47.661z" fill="#31353a"/></g></g><path d="m329.7 424.939c-4.143 0-7.5 3.357-7.5 7.5v17.399c0 4.143 3.357 7.5 7.5 7.5s7.5-3.357 7.5-7.5v-17.399c0-4.143-3.357-7.5-7.5-7.5z" fill="#5ab1ff"/></g></svg>