<svg xmlns="http://www.w3.org/2000/svg" width="1000" height="1000" viewBox="0 0 1000 1000">
  <g id="play" transform="translate(1282 1401)">
    <circle id="Ellipse_1" data-name="Ellipse 1" cx="500" cy="500" r="500" transform="translate(-1282 -1401)" fill="rgba(141,186,255,0.15)"/>
    <g id="play-2" data-name="play" transform="translate(-981.883 -1116)">
      <g id="Group_3" data-name="Group 3" transform="translate(34.883 0)">
        <path id="Path_13" data-name="Path 13" d="M378.573,165.484,124.447,8.836A58.76,58.76,0,0,0,34.883,58.873v311.87c0,32.645,26.3,59.346,58.632,59.522h.263c10.1,0,20.631-3.167,30.464-9.168a16.777,16.777,0,0,0-17.476-28.645c-4.6,2.805-9.091,4.256-13.07,4.256a26.071,26.071,0,0,1-25.258-25.966V58.874a25.2,25.2,0,0,1,38.407-21.469L360.972,194.054a25.2,25.2,0,0,1-.111,42.994l-183.735,112.5a16.778,16.778,0,1,0,17.522,28.618L378.361,265.679a58.76,58.76,0,0,0,.212-100.2Z" transform="translate(-34.883 0)" fill="#8dbaff"/>
      </g>
    </g>
  </g>
</svg>
