<svg id="Layer_1" enable-background="new 0 0 512 512" height="512" viewBox="0 0 512 512" width="512" xmlns="http://www.w3.org/2000/svg"><g><path d="m407.81 294.14c-1.43 1.58-3.45 2.48-5.58 2.48h-12.34c-2.02 0-4.02-.17-5.97-.5-10.16-1.69-19.14-7.64-25.09-15.94-7.09 9.89-18.49 16.44-31.06 16.44h-145.35c-12.57 0-23.97-6.55-31.06-16.44-7.09 9.89-18.49 16.44-31.06 16.44h-10.53c-2.13 0-4.16-.9-5.58-2.48s-2.1-3.69-1.88-5.81l17.69-166.05c7.05-66.2 60.13-116.94 125.5-121.88 3.47-.27 6.97-.4 10.5-.4 70.11 0 128.57 52.57 136 122.28l17.69 166.05c.22 2.12-.46 4.23-1.88 5.81z" fill="#cc753a"/><path d="m409.69 288.33c.22 2.12-.46 4.23-1.88 5.81-1.43 1.58-3.45 2.48-5.58 2.48h-12.34c-2.02 0-4.02-.17-5.97-.5 1.09-.42 2.09-1.09 2.89-1.98 1.42-1.58 2.1-3.69 1.88-5.81l-17.69-166.05c-7.06-66.2-60.13-116.94-125.5-121.88 3.47-.27 6.97-.4 10.5-.4 70.11 0 128.57 52.57 136 122.28z" fill="#c6542c"/><g><path d="m441.74 512h-371.48c-13.08 0-23.34-11.208-22.18-24.226l4.56-50.921c2.83-31.595 25.74-57.77 56.71-64.779l60.35-13.668 9.44-2.13 5.56-1.26 24.53-5.559 95.3.43 22.76 5.149 6.5 1.47 8.5 1.92 48.06 10.868 12.28 2.78c30.98 7.009 53.9 33.184 56.73 64.799l4.56 50.901c1.16 13.018-9.1 24.226-22.18 24.226z" fill="#fff24a"/><path d="m463.92 487.773c1.16 13.018-9.1 24.226-22.18 24.226h-24c13.08 0 23.34-11.208 22.18-24.226l-4.56-50.901c-2.46-27.505-20.07-56.01-45.01-67.579l12.28 2.78c30.98 7.009 53.9 33.184 56.73 64.799z" fill="#ffbe2c"/><g fill="#ffbe2c"><path d="m132.84 432.442v79.557h-15v-79.557c0-4.139 3.35-7.499 7.5-7.499 4.14 0 7.5 3.36 7.5 7.499z"/><path d="m394.16 432.442v79.557h-15v-79.557c0-4.139 3.36-7.499 7.5-7.499s7.5 3.36 7.5 7.499z"/></g><g><g><g fill="#ffb185"><path d="m150.251 185.264c-5.379 5.443-8.29 12.654-8.195 20.304.189 15.465 12.932 28.047 28.406 28.047h3.5v-56.792h-3.5c-7.655.001-14.832 2.998-20.211 8.441z"/><path d="m363.509 185.264c-5.379-5.443-12.557-8.441-20.211-8.44h-3.5v56.791h3.5c15.473 0 28.216-12.582 28.406-28.047.095-7.65-2.816-14.861-8.195-20.304z"/></g><path d="m304.35 349.226.18.66c-2.74 2.349-5.59 4.718-8.54 7.117-10.98 8.916-24.7 13.774-38.86 13.744-14.16.03-27.9-4.838-38.89-13.774-3.13-2.529-6.13-5.038-9.01-7.517 2.04-7.706 3.22-15.603 3.52-23.539.06-1.419.09-2.829.09-4.248 0-5.358-.39-10.715-1.19-16.043l-2.42-16.203h95.3l-2.46 16.473c-1.01 6.727-1.38 13.514-1.12 20.281.3 7.766 1.44 15.492 3.4 23.049z" fill="#ffd6ae"/><path d="m302.07 305.896c-1.01 6.727-1.38 13.514-1.12 20.281-2.23 1.909-4.54 3.828-6.94 5.767-10.39 8.436-23.49 13.094-36.9 13.094h-.23c-13.4 0-26.52-4.658-36.93-13.134-2.49-2.019-4.89-4.008-7.2-5.987.06-1.419.09-2.829.09-4.248 0-5.358-.39-10.715-1.19-16.043l-2.42-16.203h95.3z" fill="#ffb185"/><path d="m345.52 225.39c.19 2.26.29 4.54.29 6.88 0 22.06-16.94 46.49-51.8 74.68-10.39 8.45-23.49 13.1-36.9 13.1h-.23c-13.4 0-26.52-4.66-36.93-13.13-34.83-28.16-51.76-52.59-51.76-74.66 0-2.34.09-4.61.28-6.74 1.36-13.95.92-39.03-1.01-59.43 4.3 0 10.59.09 17.83.2 10.3.14 21.8.3 32.24.3 11.4 0 21.54-.19 27.47-.81 28.55-2.98 40.3-12.14 49.5-24.42 9.79 15.49 28.55 24.67 52.04 24.73-1.93 20.38-2.38 45.44-1.02 59.3z" fill="#ffd6ae"/><g><path d="m276.185 256.726h-40.372c-4.142 0-7.5 3.356-7.5 7.497 0 4.14 3.358 7.497 7.5 7.497h40.372c4.143 0 7.5-3.356 7.5-7.497 0-4.14-3.358-7.497-7.5-7.497z" fill="#ffb185"/></g></g></g><path d="m209.23 349.457v106.632l-15.04.27-15.05.27v-100.353l5.56-1.26 9.49-2.149z" fill="#e6f3ff"/><path d="m209.23 349.457v106.632l-15.04.27v-103.492z" fill="#d6dced"/><path d="m333.79 356.506v100.553l-14.63-.27-14.63-.27v-106.632l14.63 3.31 8.13 1.839z" fill="#e6f3ff"/><path d="m333.79 356.506v100.553l-14.63-.27v-103.592l8.13 1.839z" fill="#d6dced"/><path d="m276.991 389.371h-41.983c-4.142 0-7.5 3.357-7.5 7.499v26.15c0 4.141 3.358 7.499 7.5 7.499h41.983c4.142 0 7.5-3.357 7.5-7.499v-26.15c0-4.142-3.357-7.499-7.5-7.499z" fill="#31353a"/><path d="m350.99 432.023v64.469c0 8.569-6.94 15.507-15.51 15.507h-155.42c-8.57 0-15.51-6.939-15.51-15.507v-64.469c0-8.559 6.94-15.497 15.51-15.497h155.42c8.57 0 15.51 6.939 15.51 15.497z" fill="#49525e"/><path d="m350.99 432.023v64.469c0 8.569-6.94 15.507-15.51 15.507h-23c8.57 0 15.51-6.939 15.51-15.507v-64.469c0-8.559-6.94-15.497-15.51-15.497h23c8.57 0 15.51 6.939 15.51 15.497z" fill="#31353a"/><path d="m298.02 464.258c0 22.226-18.02 40.243-40.25 40.243-3.09 0-6.11-.35-9-1.01-17.9-4.089-31.25-20.097-31.25-39.233 0-19.137 13.35-35.134 31.25-39.223 2.89-.66 5.91-1.01 9-1.01 22.23 0 40.25 18.007 40.25 40.233z" fill="#5cd9ff"/><g fill="#5ab1ff"><path d="m298.02 464.258c0 22.226-18.02 40.243-40.25 40.243-3.09 0-6.11-.35-9-1.01 17.9-4.089 31.25-20.097 31.25-39.233 0-19.137-13.35-35.134-31.25-39.223 2.89-.66 5.91-1.01 9-1.01 22.23 0 40.25 18.007 40.25 40.233z"/><path d="m257.337 449.309c-4.142 0-7.5 3.357-7.5 7.499v14.903c0 4.141 3.358 7.499 7.5 7.499s7.5-3.357 7.5-7.499v-14.903c0-4.141-3.358-7.499-7.5-7.499z"/></g></g></g></svg>