<svg id="Layer_1" enable-background="new 0 0 512 512" height="512" viewBox="0 0 512 512" width="512" xmlns="http://www.w3.org/2000/svg"><g><g><g><path d="m459.36 436.87c-2.83-31.61-25.75-57.79-56.73-64.8l-12.28-2.78-85.82-19.4-95.3-.43-99.88 22.61c-30.97 7.01-53.88 33.19-56.71 64.78l-.86 9.56-3.7 41.36c-1.16 13.02 9.1 24.23 22.18 24.23h371.48l18.48-65.59z" fill="#9ca9b7"/><path d="m459.36 436.871c-2.83-31.615-25.75-57.79-56.73-64.799l-12.28-2.78c24.94 11.568 42.55 40.073 45.01 67.579l4.56 50.901c1.16 13.018-9.1 24.226-22.18 24.226h24l18.475-65.588z" fill="#75818e"/><path d="m125.34 458.19v53.81h-55.08c-13.08 0-23.34-11.21-22.18-24.23l3.7-41.36z" fill="#ffd6ae"/><path d="m441.74 512h-55.08v-53.81l49.89-7.99 23.66-3.79 3.71 41.36c1.16 13.02-9.1 24.23-22.18 24.23z" fill="#ffd6ae"/><path d="m441.74 512h-24c13.08 0 23.34-11.21 22.18-24.23l-3.37-37.57 23.66-3.79 3.71 41.36c1.16 13.02-9.1 24.23-22.18 24.23z" fill="#ffb185"/><g fill="#75818e"><path d="m132.84 432.442v79.557h-15v-79.557c0-4.139 3.35-7.499 7.5-7.499 4.14 0 7.5 3.36 7.5 7.499z"/><path d="m394.16 432.442v79.557h-15v-79.557c0-4.139 3.36-7.499 7.5-7.499s7.5 3.36 7.5 7.499z"/></g><g><g><g fill="#ffb185"><path d="m150.251 185.264c-5.379 5.443-8.29 12.654-8.195 20.304.189 15.465 12.932 28.047 28.406 28.047h3.5v-56.792h-3.5c-7.655.001-14.832 2.998-20.211 8.441z"/><path d="m363.509 185.264c-5.379-5.443-12.557-8.441-20.211-8.44h-3.5v56.791h3.5c15.473 0 28.216-12.582 28.406-28.047.095-7.65-2.816-14.861-8.195-20.304z"/></g><path d="m304.35 349.226.18.66c-2.74 2.349-5.59 4.718-8.54 7.117-10.98 8.916-24.7 13.774-38.86 13.744-14.16.03-27.9-4.838-38.89-13.774-3.13-2.529-6.13-5.038-9.01-7.517 2.04-7.706 3.22-15.603 3.52-23.539.06-1.419.09-2.829.09-4.248 0-5.358-.39-10.715-1.19-16.043l-2.42-16.203h95.3l-2.46 16.473c-1.01 6.727-1.38 13.514-1.12 20.281.3 7.766 1.44 15.492 3.4 23.049z" fill="#ffd6ae"/><path d="m302.07 305.896c-1.01 6.727-1.38 13.514-1.12 20.281-2.23 1.909-4.54 3.828-6.94 5.767-10.39 8.436-23.49 13.094-36.9 13.094h-.23c-13.4 0-26.52-4.658-36.93-13.134-2.49-2.019-4.89-4.008-7.2-5.987.06-1.419.09-2.829.09-4.248 0-5.358-.39-10.715-1.19-16.043l-2.42-16.203h95.3z" fill="#ffb185"/><path d="m345.52 225.39c.19 2.26.29 4.54.29 6.88 0 22.06-16.94 46.49-51.8 74.68-10.39 8.45-23.49 13.1-36.9 13.1h-.23c-13.4 0-26.52-4.66-36.93-13.13-34.83-28.16-51.76-52.59-51.76-74.66 0-2.34.09-4.61.28-6.74.59-6.03.84-14.13.78-23.04-.03-5.39-.18-11.08-.44-16.78-.35-7.57-.88-15.16-1.59-22.11l88.78-39.99 90.78 39.99c-.7 6.85-1.23 14.33-1.57 21.79-.27 5.67-.43 11.34-.47 16.71-.07 9.02.18 17.23.78 23.3z" fill="#ffd6ae"/><g><path d="m276.185 256.726h-40.372c-4.142 0-7.5 3.356-7.5 7.497 0 4.14 3.358 7.497 7.5 7.497h40.372c4.143 0 7.5-3.356 7.5-7.497 0-4.14-3.358-7.497-7.5-7.497z" fill="#ffb185"/></g></g><path d="m390.52 121.689c0 29.275-23.82 53.091-53.11 53.091-10.97 0-21.38-3.4-30.04-9.349h-.01c-8.05-5.509-14.57-13.238-18.61-22.466-9.86 7.389-21.9 11.418-34.3 11.418-11.39 0-22.26-3.289-31.64-9.538-8.61 18.587-27.57 30.845-48.23 30.845-29.28 0-53.1-23.816-53.1-53.091 0-19.227 10.6-37.094 27.27-46.402-3.9-5.439-6.01-11.968-6.01-18.727 0-17.727 14.42-32.154 32.16-32.154 3.4 0 6.73.53 9.92 1.56 5.61-15.958 20.82-26.876 37.97-26.876 12.24 0 23.62 5.479 31.23 14.857 5.85-9.148 16.07-14.857 27.11-14.857 11.11 0 21.26 5.629 27.14 14.888.01.01.01.02.01.02 6.25-3.769 13.36-5.749 20.74-5.749 22.19 0 40.24 18.047 40.24 40.233 0 8.989-2.96 17.607-8.42 24.636 18.15 8.888 29.68 27.215 29.68 47.661z" fill="#49525e"/><path d="m390.52 121.689c0 29.275-23.82 53.091-53.11 53.091-10.97 0-21.38-3.4-30.04-9.349 48.383 1.406 63.15-25.496 63.15-43.743 0-12.738-7.08-24.126-18.48-29.715-5.4-2.649-9.32-7.579-10.68-13.438s-.01-12.018 3.68-16.767c2.76-3.559 4.22-7.839 4.22-12.378 0-11.158-7.8-34.134-40.98-34.484 6.25-3.769 13.36-5.749 20.74-5.749 22.19 0 40.24 18.047 40.24 40.233 0 8.989-2.96 17.607-8.42 24.636 18.15 8.89 29.68 27.217 29.68 47.663z" fill="#31353a"/></g></g></g><g fill="#e6f3ff"><path d="m229.39 405.47c-2.929-2.928-7.678-2.928-10.606 0l-31.636 31.637c-1.407 1.407-2.197 3.314-2.197 5.304s.79 3.896 2.197 5.304l31.636 31.636c1.464 1.464 3.384 2.196 5.303 2.196s3.839-.732 5.303-2.196c2.929-2.93 2.929-7.678 0-10.607l-26.333-26.332 26.333-26.333c2.929-2.932 2.929-7.68 0-10.609z"/><path d="m326.612 437.106-31.636-31.637c-2.929-2.927-7.678-2.929-10.606 0-2.929 2.93-2.929 7.678 0 10.607l26.333 26.333-26.333 26.332c-2.929 2.93-2.929 7.678 0 10.607 1.464 1.464 3.384 2.196 5.303 2.196s3.839-.732 5.303-2.196l31.636-31.636c1.407-1.407 2.197-3.314 2.197-5.304s-.79-3.894-2.197-5.302z"/><path d="m265.65 403.442c-4.046-.875-8.04 1.7-8.913 5.749l-13.65 63.272c-.874 4.05 1.701 8.04 5.75 8.913.533.115 1.065.171 1.589.171 3.457 0 6.565-2.404 7.324-5.92l13.65-63.272c.874-4.049-1.7-8.04-5.75-8.913z"/></g><path d="m345.21 185.38c-.27 5.67-.43 11.34-.47 16.71l-30.37 13.89c-.98.45-2.05.68-3.12.68h-110.17c-1.1 0-2.19-.24-3.19-.71l-28.64-13.47c-.03-5.39-.18-11.08-.44-16.78l33.95 15.96h106.85z" fill="#9ca9b7"/><g><path d="m252.21 209.16c0 16.63-13.52 30.15-30.15 30.15-2.77 0-5.44-.37-7.99-1.09-12.76-3.5-22.15-15.2-22.15-29.06 0-13.85 9.39-25.55 22.15-29.05 2.55-.72 5.22-1.09 7.99-1.09 16.63 0 30.15 13.52 30.15 30.14z" fill="#e6f3ff"/><path d="m252.21 209.16c0 16.63-13.52 30.15-30.15 30.15-2.77 0-5.44-.37-7.99-1.09 12.75-3.51 22.14-15.2 22.14-29.06 0-13.85-9.39-25.55-22.14-29.05 2.55-.72 5.22-1.09 7.99-1.09 16.63 0 30.15 13.52 30.15 30.14z" fill="#d6dced"/><path d="m289.934 179.016c-16.624 0-30.148 13.524-30.148 30.148s13.524 30.148 30.148 30.148 30.148-13.524 30.148-30.148-13.524-30.148-30.148-30.148z" fill="#e6f3ff"/><path d="m320.082 209.16c0 16.63-13.52 30.15-30.15 30.15-2.77 0-5.44-.37-7.99-1.09 12.75-3.51 22.14-15.2 22.14-29.06 0-13.85-9.39-25.55-22.14-29.05 2.55-.72 5.22-1.09 7.99-1.09 16.63 0 30.15 13.52 30.15 30.14z" fill="#d6dced"/></g></g></svg>