<svg xmlns="http://www.w3.org/2000/svg" width="1000" height="1000" viewBox="0 0 1000 1000">
  <g id="share-link" transform="translate(1282 1401)">
    <circle id="Ellipse_1" data-name="Ellipse 1" cx="500" cy="500" r="500" transform="translate(-1282 -1401)" fill="rgba(112,112,112,0.15)"/>
    <g id="link" transform="translate(-987.039 -1105.886)">
      <g id="Group_2" data-name="Group 2" transform="translate(0.039 131.903)">
        <g id="Group_1" data-name="Group 1">
          <path id="Path_9" data-name="Path 9" d="M250.373,192.649A93.083,93.083,0,0,0,234.3,179.725a95.741,95.741,0,0,0-119.317,12.923L28.012,279.692A95.732,95.732,0,0,0,163.33,415.146l71.8-71.8a6.838,6.838,0,0,0-4.855-11.692h-2.735a115.086,115.086,0,0,1-43.761-8.478,6.837,6.837,0,0,0-7.453,1.5L124.7,376.376a41.049,41.049,0,0,1-58.052-58.052l87.317-87.248a41.026,41.026,0,0,1,57.984,0,28.034,28.034,0,0,0,38.427,0,27.084,27.084,0,0,0,0-38.427Z" transform="translate(-0.039 -164.614)" fill="rgba(68,68,68,0.7)"/>
        </g>
      </g>
      <g id="Group_4" data-name="Group 4" transform="translate(151.853 0)">
        <g id="Group_3" data-name="Group 3">
          <path id="Path_10" data-name="Path 10" d="M419.92,28.04a95.732,95.732,0,0,0-135.386,0L212.807,99.7A6.864,6.864,0,0,0,217.8,111.39h2.53a114.871,114.871,0,0,1,43.693,8.547,6.837,6.837,0,0,0,7.453-1.5L322.96,67.014a41.049,41.049,0,1,1,58.052,58.052l-64.138,64.069-.547.615L293.9,212.041a41.026,41.026,0,0,1-57.984,0,28.034,28.034,0,0,0-38.427,0,27.262,27.262,0,0,0,0,38.564,94.91,94.91,0,0,0,27.35,19.145c1.436.684,2.872,1.231,4.308,1.846s2.94,1.094,4.376,1.641,2.94,1.026,4.376,1.436l4.035,1.094c2.735.684,5.47,1.231,8.273,1.709a95.172,95.172,0,0,0,10.188.958h5.2l4.1-.478c1.5-.068,3.077-.41,4.855-.41h2.325l4.718-.684,2.188-.41,3.966-.821h.752a95.719,95.719,0,0,0,44.376-25.163l87.043-87.043A95.73,95.73,0,0,0,419.92,28.04Z" transform="translate(-189.502 0)" fill="rgba(68,68,68,0.7)"/>
        </g>
      </g>
    </g>
  </g>
</svg>
