<svg xmlns="http://www.w3.org/2000/svg" xmlns:xlink="http://www.w3.org/1999/xlink" width="1862.988" height="259.414" viewBox="0 0 1862.988 259.414">
  <defs>
    <clipPath id="clip-path">
      <rect width="1862.988" height="259.414" fill="none"/>
    </clipPath>
  </defs>
  <g id="sound-waves" transform="translate(118 258)">
    <g id="sound-waves-2" data-name="sound-waves" transform="translate(-118 -258)" clip-path="url(#clip-path)">
      <g id="sound-waves-3" data-name="sound-waves" transform="translate(0 -0.492)">
        <path id="Path_2" data-name="Path 2" d="M6.828,102.895A6.824,6.824,0,0,0,0,109.719v34.133a6.826,6.826,0,1,0,13.652,0V109.719A6.823,6.823,0,0,0,6.828,102.9Zm0,0" fill="#d4d4d4"/>
        <path id="Path_3" data-name="Path 3" d="M40.984,74.941a6.83,6.83,0,0,0-6.828,6.828v94.516a6.828,6.828,0,0,0,13.656,0V81.77a6.83,6.83,0,0,0-6.828-6.828Zm0,0" fill="#d4d4d4"/>
        <path id="Path_4" data-name="Path 4" d="M75.094,27.8a6.827,6.827,0,0,0-6.828,6.824V225.773a6.828,6.828,0,0,0,13.656,0V34.625A6.827,6.827,0,0,0,75.094,27.8Zm0,0" fill="#d4d4d4"/>
        <path id="Path_5" data-name="Path 5" d="M109.227,61.934a6.828,6.828,0,0,0-6.828,6.828V184.813a6.828,6.828,0,1,0,13.656,0V68.762a6.828,6.828,0,0,0-6.828-6.828Zm0,0" fill="#d4d4d4"/>
        <path id="Path_6" data-name="Path 6" d="M212.293,45.406a6.824,6.824,0,0,0-6.824,6.828v153.59a6.826,6.826,0,0,0,13.652,0V52.234a6.828,6.828,0,0,0-6.828-6.828Zm0,0" fill="#d4d4d4"/>
        <path id="Path_7" data-name="Path 7" d="M279.895,55.105a6.83,6.83,0,0,0-6.828,6.828V198.465a6.826,6.826,0,1,0,13.652,0V61.934a6.827,6.827,0,0,0-6.824-6.828Zm0,0" fill="#d4d4d4"/>
        <path id="Path_8" data-name="Path 8" d="M314.027,89.238a6.83,6.83,0,0,0-6.828,6.828v68.266a6.826,6.826,0,1,0,13.652,0V96.066A6.827,6.827,0,0,0,314.027,89.238Zm0,0" fill="#d4d4d4"/>
        <path id="Path_9" data-name="Path 9" d="M245.762.492a6.828,6.828,0,0,0-6.828,6.828V253.078a6.826,6.826,0,1,0,13.652,0V7.32A6.827,6.827,0,0,0,245.762.492Zm0,0" fill="#d4d4d4"/>
        <path id="Path_10" data-name="Path 10" d="M143.359,109.719a6.827,6.827,0,0,0-6.824,6.828v27.3a6.826,6.826,0,1,0,13.652,0v-27.3A6.83,6.83,0,0,0,143.359,109.719Zm0,0" fill="#d4d4d4"/>
        <path id="Path_11" data-name="Path 11" d="M348.16,107.434a6.827,6.827,0,0,0-6.828,6.824V143.8a6.828,6.828,0,0,0,13.656,0V114.258A6.827,6.827,0,0,0,348.16,107.434Zm0,0" fill="#d4d4d4"/>
        <path id="Path_12" data-name="Path 12" d="M176.852,94.418a6.824,6.824,0,0,0-6.828,6.824v55.57a6.826,6.826,0,1,0,13.652,0v-55.57A6.823,6.823,0,0,0,176.852,94.418Zm0,0" fill="#d4d4d4"/>
      </g>
      <g id="sound-waves-4" data-name="sound-waves" transform="translate(375 -0.492)">
        <path id="Path_2-2" data-name="Path 2" d="M6.828,102.895A6.824,6.824,0,0,0,0,109.719v34.133a6.826,6.826,0,1,0,13.652,0V109.719A6.823,6.823,0,0,0,6.828,102.9Zm0,0" fill="#d4d4d4"/>
        <path id="Path_3-2" data-name="Path 3" d="M40.984,74.941a6.83,6.83,0,0,0-6.828,6.828v94.516a6.828,6.828,0,0,0,13.656,0V81.77a6.83,6.83,0,0,0-6.828-6.828Zm0,0" fill="#d4d4d4"/>
        <path id="Path_4-2" data-name="Path 4" d="M75.094,27.8a6.827,6.827,0,0,0-6.828,6.824V225.773a6.828,6.828,0,0,0,13.656,0V34.625A6.827,6.827,0,0,0,75.094,27.8Zm0,0" fill="#d4d4d4"/>
        <path id="Path_5-2" data-name="Path 5" d="M109.227,61.934a6.828,6.828,0,0,0-6.828,6.828V184.813a6.828,6.828,0,1,0,13.656,0V68.762a6.828,6.828,0,0,0-6.828-6.828Zm0,0" fill="#d4d4d4"/>
        <path id="Path_6-2" data-name="Path 6" d="M212.293,45.406a6.824,6.824,0,0,0-6.824,6.828v153.59a6.826,6.826,0,0,0,13.652,0V52.234a6.828,6.828,0,0,0-6.828-6.828Zm0,0" fill="#d4d4d4"/>
        <path id="Path_7-2" data-name="Path 7" d="M279.895,55.105a6.83,6.83,0,0,0-6.828,6.828V198.465a6.826,6.826,0,1,0,13.652,0V61.934a6.827,6.827,0,0,0-6.824-6.828Zm0,0" fill="#d4d4d4"/>
        <path id="Path_8-2" data-name="Path 8" d="M314.027,89.238a6.83,6.83,0,0,0-6.828,6.828v68.266a6.826,6.826,0,1,0,13.652,0V96.066A6.827,6.827,0,0,0,314.027,89.238Zm0,0" fill="#d4d4d4"/>
        <path id="Path_9-2" data-name="Path 9" d="M245.762.492a6.828,6.828,0,0,0-6.828,6.828V253.078a6.826,6.826,0,1,0,13.652,0V7.32A6.827,6.827,0,0,0,245.762.492Zm0,0" fill="#d4d4d4"/>
        <path id="Path_10-2" data-name="Path 10" d="M143.359,109.719a6.827,6.827,0,0,0-6.824,6.828v27.3a6.826,6.826,0,1,0,13.652,0v-27.3A6.83,6.83,0,0,0,143.359,109.719Zm0,0" fill="#d4d4d4"/>
        <path id="Path_11-2" data-name="Path 11" d="M348.16,107.434a6.827,6.827,0,0,0-6.828,6.824V143.8a6.828,6.828,0,0,0,13.656,0V114.258A6.827,6.827,0,0,0,348.16,107.434Zm0,0" fill="#d4d4d4"/>
        <path id="Path_12-2" data-name="Path 12" d="M176.852,94.418a6.824,6.824,0,0,0-6.828,6.824v55.57a6.826,6.826,0,1,0,13.652,0v-55.57A6.823,6.823,0,0,0,176.852,94.418Zm0,0" fill="#d4d4d4"/>
      </g>
      <g id="sound-waves-5" data-name="sound-waves" transform="translate(750 -0.492)">
        <path id="Path_2-3" data-name="Path 2" d="M6.828,102.895A6.824,6.824,0,0,0,0,109.719v34.133a6.826,6.826,0,1,0,13.652,0V109.719A6.823,6.823,0,0,0,6.828,102.9Zm0,0" fill="#d4d4d4"/>
        <path id="Path_3-3" data-name="Path 3" d="M40.984,74.941a6.83,6.83,0,0,0-6.828,6.828v94.516a6.828,6.828,0,0,0,13.656,0V81.77a6.83,6.83,0,0,0-6.828-6.828Zm0,0" fill="#d4d4d4"/>
        <path id="Path_4-3" data-name="Path 4" d="M75.094,27.8a6.827,6.827,0,0,0-6.828,6.824V225.773a6.828,6.828,0,0,0,13.656,0V34.625A6.827,6.827,0,0,0,75.094,27.8Zm0,0" fill="#d4d4d4"/>
        <path id="Path_5-3" data-name="Path 5" d="M109.227,61.934a6.828,6.828,0,0,0-6.828,6.828V184.813a6.828,6.828,0,1,0,13.656,0V68.762a6.828,6.828,0,0,0-6.828-6.828Zm0,0" fill="#d4d4d4"/>
        <path id="Path_6-3" data-name="Path 6" d="M212.293,45.406a6.824,6.824,0,0,0-6.824,6.828v153.59a6.826,6.826,0,0,0,13.652,0V52.234a6.828,6.828,0,0,0-6.828-6.828Zm0,0" fill="#d4d4d4"/>
        <path id="Path_7-3" data-name="Path 7" d="M279.895,55.105a6.83,6.83,0,0,0-6.828,6.828V198.465a6.826,6.826,0,1,0,13.652,0V61.934a6.827,6.827,0,0,0-6.824-6.828Zm0,0" fill="#d4d4d4"/>
        <path id="Path_8-3" data-name="Path 8" d="M314.027,89.238a6.83,6.83,0,0,0-6.828,6.828v68.266a6.826,6.826,0,1,0,13.652,0V96.066A6.827,6.827,0,0,0,314.027,89.238Zm0,0" fill="#d4d4d4"/>
        <path id="Path_9-3" data-name="Path 9" d="M245.762.492a6.828,6.828,0,0,0-6.828,6.828V253.078a6.826,6.826,0,1,0,13.652,0V7.32A6.827,6.827,0,0,0,245.762.492Zm0,0" fill="#d4d4d4"/>
        <path id="Path_10-3" data-name="Path 10" d="M143.359,109.719a6.827,6.827,0,0,0-6.824,6.828v27.3a6.826,6.826,0,1,0,13.652,0v-27.3A6.83,6.83,0,0,0,143.359,109.719Zm0,0" fill="#d4d4d4"/>
        <path id="Path_11-3" data-name="Path 11" d="M348.16,107.434a6.827,6.827,0,0,0-6.828,6.824V143.8a6.828,6.828,0,0,0,13.656,0V114.258A6.827,6.827,0,0,0,348.16,107.434Zm0,0" fill="#d4d4d4"/>
        <path id="Path_12-3" data-name="Path 12" d="M176.852,94.418a6.824,6.824,0,0,0-6.828,6.824v55.57a6.826,6.826,0,1,0,13.652,0v-55.57A6.823,6.823,0,0,0,176.852,94.418Zm0,0" fill="#d4d4d4"/>
      </g>
      <g id="sound-waves-6" data-name="sound-waves" transform="translate(1125 -0.492)">
        <path id="Path_2-4" data-name="Path 2" d="M6.828,102.895A6.824,6.824,0,0,0,0,109.719v34.133a6.826,6.826,0,1,0,13.652,0V109.719A6.823,6.823,0,0,0,6.828,102.9Zm0,0" fill="#d4d4d4"/>
        <path id="Path_3-4" data-name="Path 3" d="M40.984,74.941a6.83,6.83,0,0,0-6.828,6.828v94.516a6.828,6.828,0,0,0,13.656,0V81.77a6.83,6.83,0,0,0-6.828-6.828Zm0,0" fill="#d4d4d4"/>
        <path id="Path_4-4" data-name="Path 4" d="M75.094,27.8a6.827,6.827,0,0,0-6.828,6.824V225.773a6.828,6.828,0,0,0,13.656,0V34.625A6.827,6.827,0,0,0,75.094,27.8Zm0,0" fill="#d4d4d4"/>
        <path id="Path_5-4" data-name="Path 5" d="M109.227,61.934a6.828,6.828,0,0,0-6.828,6.828V184.813a6.828,6.828,0,1,0,13.656,0V68.762a6.828,6.828,0,0,0-6.828-6.828Zm0,0" fill="#d4d4d4"/>
        <path id="Path_6-4" data-name="Path 6" d="M212.293,45.406a6.824,6.824,0,0,0-6.824,6.828v153.59a6.826,6.826,0,0,0,13.652,0V52.234a6.828,6.828,0,0,0-6.828-6.828Zm0,0" fill="#d4d4d4"/>
        <path id="Path_7-4" data-name="Path 7" d="M279.895,55.105a6.83,6.83,0,0,0-6.828,6.828V198.465a6.826,6.826,0,1,0,13.652,0V61.934a6.827,6.827,0,0,0-6.824-6.828Zm0,0" fill="#d4d4d4"/>
        <path id="Path_8-4" data-name="Path 8" d="M314.027,89.238a6.83,6.83,0,0,0-6.828,6.828v68.266a6.826,6.826,0,1,0,13.652,0V96.066A6.827,6.827,0,0,0,314.027,89.238Zm0,0" fill="#d4d4d4"/>
        <path id="Path_9-4" data-name="Path 9" d="M245.762.492a6.828,6.828,0,0,0-6.828,6.828V253.078a6.826,6.826,0,1,0,13.652,0V7.32A6.827,6.827,0,0,0,245.762.492Zm0,0" fill="#d4d4d4"/>
        <path id="Path_10-4" data-name="Path 10" d="M143.359,109.719a6.827,6.827,0,0,0-6.824,6.828v27.3a6.826,6.826,0,1,0,13.652,0v-27.3A6.83,6.83,0,0,0,143.359,109.719Zm0,0" fill="#d4d4d4"/>
        <path id="Path_11-4" data-name="Path 11" d="M348.16,107.434a6.827,6.827,0,0,0-6.828,6.824V143.8a6.828,6.828,0,0,0,13.656,0V114.258A6.827,6.827,0,0,0,348.16,107.434Zm0,0" fill="#d4d4d4"/>
        <path id="Path_12-4" data-name="Path 12" d="M176.852,94.418a6.824,6.824,0,0,0-6.828,6.824v55.57a6.826,6.826,0,1,0,13.652,0v-55.57A6.823,6.823,0,0,0,176.852,94.418Zm0,0" fill="#d4d4d4"/>
      </g>
      <g id="sound-waves-7" data-name="sound-waves" transform="translate(1500 -0.492)">
        <path id="Path_2-5" data-name="Path 2" d="M6.828,102.895A6.824,6.824,0,0,0,0,109.719v34.133a6.826,6.826,0,1,0,13.652,0V109.719A6.823,6.823,0,0,0,6.828,102.9Zm0,0" fill="#d4d4d4"/>
        <path id="Path_3-5" data-name="Path 3" d="M40.984,74.941a6.83,6.83,0,0,0-6.828,6.828v94.516a6.828,6.828,0,0,0,13.656,0V81.77a6.83,6.83,0,0,0-6.828-6.828Zm0,0" fill="#d4d4d4"/>
        <path id="Path_4-5" data-name="Path 4" d="M75.094,27.8a6.827,6.827,0,0,0-6.828,6.824V225.773a6.828,6.828,0,0,0,13.656,0V34.625A6.827,6.827,0,0,0,75.094,27.8Zm0,0" fill="#d4d4d4"/>
        <path id="Path_5-5" data-name="Path 5" d="M109.227,61.934a6.828,6.828,0,0,0-6.828,6.828V184.813a6.828,6.828,0,1,0,13.656,0V68.762a6.828,6.828,0,0,0-6.828-6.828Zm0,0" fill="#d4d4d4"/>
        <path id="Path_6-5" data-name="Path 6" d="M212.293,45.406a6.824,6.824,0,0,0-6.824,6.828v153.59a6.826,6.826,0,0,0,13.652,0V52.234a6.828,6.828,0,0,0-6.828-6.828Zm0,0" fill="#d4d4d4"/>
        <path id="Path_7-5" data-name="Path 7" d="M279.895,55.105a6.83,6.83,0,0,0-6.828,6.828V198.465a6.826,6.826,0,1,0,13.652,0V61.934a6.827,6.827,0,0,0-6.824-6.828Zm0,0" fill="#d4d4d4"/>
        <path id="Path_8-5" data-name="Path 8" d="M314.027,89.238a6.83,6.83,0,0,0-6.828,6.828v68.266a6.826,6.826,0,1,0,13.652,0V96.066A6.827,6.827,0,0,0,314.027,89.238Zm0,0" fill="#d4d4d4"/>
        <path id="Path_9-5" data-name="Path 9" d="M245.762.492a6.828,6.828,0,0,0-6.828,6.828V253.078a6.826,6.826,0,1,0,13.652,0V7.32A6.827,6.827,0,0,0,245.762.492Zm0,0" fill="#d4d4d4"/>
        <path id="Path_10-5" data-name="Path 10" d="M143.359,109.719a6.827,6.827,0,0,0-6.824,6.828v27.3a6.826,6.826,0,1,0,13.652,0v-27.3A6.83,6.83,0,0,0,143.359,109.719Zm0,0" fill="#d4d4d4"/>
        <path id="Path_11-5" data-name="Path 11" d="M348.16,107.434a6.827,6.827,0,0,0-6.828,6.824V143.8a6.828,6.828,0,0,0,13.656,0V114.258A6.827,6.827,0,0,0,348.16,107.434Zm0,0" fill="#d4d4d4"/>
        <path id="Path_12-5" data-name="Path 12" d="M176.852,94.418a6.824,6.824,0,0,0-6.828,6.824v55.57a6.826,6.826,0,1,0,13.652,0v-55.57A6.823,6.823,0,0,0,176.852,94.418Zm0,0" fill="#d4d4d4"/>
      </g>
    </g>
  </g>
</svg>
